<?xml version="1.0" encoding="utf-8"?>
<!-- Generator: Adobe Illustrator 27.2.0, SVG Export Plug-In . SVG Version: 6.00 Build 0)  -->
<svg version="1.1" id="Layer_1" xmlns="http://www.w3.org/2000/svg" xmlns:xlink="http://www.w3.org/1999/xlink" x="0px" y="0px"
	 viewBox="0 0 748.6 345.8" style="enable-background:new 0 0 748.6 345.8;" xml:space="preserve">
<style type="text/css">
	.st0{fill:#FFFFFF;}
	.st1{fill:url(#SVGID_1_);}
	.st2{fill:url(#SVGID_00000088843148444176969890000010457584726616859810_);}
	.st3{fill:url(#SVGID_00000070095972684963455490000004303632034399733138_);}
</style>
<g>
	<g>
		<g>
			<path class="st0" d="M353.3,304.5v40.9h-8.2V328h-17.5v17.4h-8.2v-40.9h8.2v16.8h17.5v-16.8H353.3z"/>
			<path class="st0" d="M403.9,304.5l-15,40.9h-10l-15-40.9h8.8l11.2,32.5l11.2-32.5H403.9L403.9,304.5z"/>
			<path class="st0" d="M439.8,337.6h-16.3l-2.7,7.8h-8.6l14.7-41h9.5l14.7,41h-8.7L439.8,337.6L439.8,337.6z M437.6,331.1
				l-5.9-17.1l-5.9,17.1H437.6L437.6,331.1z"/>
			<path class="st0" d="M463.3,314.1c1.8-3.2,4.3-5.7,7.4-7.4s6.7-2.7,10.6-2.7c4.6,0,8.6,1.2,12,3.5c3.4,2.3,5.8,5.6,7.2,9.7h-9.4
				c-0.9-2-2.2-3.4-4-4.4c-1.7-1-3.7-1.5-5.9-1.5c-2.4,0-4.5,0.6-6.4,1.7s-3.3,2.7-4.3,4.7c-1,2-1.5,4.4-1.5,7.2s0.5,5.1,1.5,7.1
				c1,2,2.5,3.6,4.3,4.7c1.9,1.1,4,1.7,6.4,1.7c2.2,0,4.2-0.5,5.9-1.5c1.7-1,3-2.5,4-4.4h9.4c-1.4,4.2-3.8,7.4-7.2,9.8
				c-3.4,2.3-7.4,3.5-12,3.5c-3.9,0-7.4-0.9-10.6-2.7c-3.2-1.8-5.6-4.2-7.4-7.4c-1.8-3.2-2.7-6.8-2.7-10.8S461.4,317.3,463.3,314.1
				L463.3,314.1z"/>
		</g>
		<g>
			<path class="st0" d="M371,3.8c30.9,0,45.9,9.5,45.9,44s-13.5,45.1-48.3,45.1c-3.6,0-6.9-0.1-10.5-0.2c-1.6,0-3,1.3-2.9,2.9
				c0.2,8.5,0.5,16.2,1,22.7c0.1,1.6-1.2,3-2.8,3h-31.2c-1.6,0-2.9-1.3-2.8-2.9c0.4-16,0.4-32.2,0.4-55.8s0-40.5-0.4-55.8
				c0-1.6,1.2-2.9,2.8-2.9L371,3.8L371,3.8z M382.8,48.4c0-18.6-5.6-22.5-18.7-22.5c-1.9,0-6,0.2-9.7,0.2c0,15.7,0,30.7,0.2,44.5
				c2.2,0.2,4.9,0.2,8.4,0.2C377.8,70.6,382.8,66.7,382.8,48.4L382.8,48.4z"/>
			<path class="st0" d="M473.7,122.8c-33,0-48-15-48-53.1s16.7-49.2,48-49.2s48.7,11.3,48.7,49.2S507,122.8,473.7,122.8z
				 M473.9,42.4c-9.2,0-14.4,4.5-14.4,27.9s4.9,29.1,14.4,29.1s14.4-5.6,14.4-29.1S483.1,42.4,473.9,42.4z"/>
			<path class="st0" d="M538.2,121.2c-1.6,0-2.9-1.3-2.8-2.9c0.5-17.1,0.5-38.8,0.5-58.9c0-21.2,0-39.5-0.5-56.4
				c0-1.6,1.2-2.9,2.8-2.9h29.6c1.6,0,2.9,1.3,2.8,2.9C570,19.2,570,37,570,61.2s0,40.3,0.4,57.1c0,1.6-1.2,2.9-2.8,2.9L538.2,121.2
				L538.2,121.2z"/>
			<path class="st0" d="M638.7,107.2c-3.4,10.2-12.9,14.9-27.2,14.9c-17.8,0-27.7-5.3-27.7-28s12.9-28.8,40.1-28.8
				c4.3,0,8.3,0.2,11.8,0.5c1.7,0.2,3.1-1.1,3.1-2.7c0.1-3.5,0.1-7.1,0.1-10.5c0-6.3-3-9.9-10.3-9.9c-6.9,0-11.1,2.8-11,13.4
				c0,1.6-1.3,2.9-3,2.9c-3.3-0.1-7.2-0.1-11.1-0.1c-5.1,0-10.2,0.1-14.2,0.3c-1.6,0.1-2.9-1.2-3-2.7c-0.8-23.6,11.5-35.6,43.1-35.6
				s42.7,10,42.7,29c0,16.1-0.4,27.2-0.4,41.3c0,9.1,0.4,20.6,1.5,26.8c0.3,1.7-1,3.3-2.8,3.3h-24c-6,0-7.1-0.6-7.1-5.8
				c0-2.4,0.2-5.3,0.4-8.1L638.7,107.2L638.7,107.2z M638.4,77.7c-3-0.3-6.2-0.5-9.4-0.5c-9.2,0-13.3,2.4-13.3,12.5
				c0,10.8,2.6,13,9.7,13c8.6,0,13.1-5.6,13.1-18.6L638.4,77.7L638.4,77.7z"/>
			<path class="st0" d="M718,41c4.1-14.4,12.9-19.7,24.7-19.7c2.2,0,4.5,0.1,6.6,0.5c1.5,0.2,2.5,1.6,2.4,3.1
				c-0.8,7.9-1.5,16.9-1.6,25.9c0,1.7-1.5,3-3.2,2.8c-2.1-0.3-4.3-0.5-6.3-0.5c-11.4,0.2-15.2,3.9-15.2,17.9c0,14.6,0,32.7,0.9,47.5
				c0.1,1.6-1.2,3-2.8,3h-31.2c-1.6,0-2.9-1.3-2.8-2.9c0.3-13.1,0.3-27.6,0.3-47.7c0-19.1,0-32.6-0.3-45.5c0-1.6,1.2-2.9,2.8-2.9
				h22.2c1.6,0,2.9,1.4,2.8,3c-0.3,4.9-0.5,9.9-0.7,15.6L718,41L718,41z"/>
		</g>
		<path class="st0" d="M371,164c30.9,0,45.9,9.5,45.9,44s-13.5,45.1-48.3,45.1c-3.6,0-6.9-0.1-10.5-0.2c-1.6,0-3,1.3-2.9,2.9
			c0.2,8.5,0.5,16.2,1,22.7c0.1,1.6-1.2,3-2.8,3h-31.2c-1.6,0-2.9-1.3-2.8-2.9c0.4-16,0.4-32.2,0.4-55.8s0-40.5-0.4-55.8
			c0-1.6,1.2-2.9,2.8-2.9L371,164L371,164z M382.8,208.7c0-18.6-5.6-22.5-18.7-22.5c-1.9,0-6,0.2-9.6,0.2c0,0,0,0,0,0
			c0,15.7,0,30.7,0.2,44.5c2.2,0.2,4.9,0.2,8.4,0.2C377.8,230.9,382.8,227,382.8,208.7z"/>
		<path class="st0" d="M473.7,283c-33,0-48-15-48-53.1s16.7-49.2,48-49.2s48.7,11.3,48.7,49.2S507,283,473.7,283z M473.9,202.7
			c-9.2,0-14.4,4.5-14.4,27.9s4.9,29.1,14.4,29.1s14.4-5.6,14.4-29.1S483.1,202.7,473.9,202.7z"/>
		<path class="st0" d="M538.6,281.5c-1.6,0-2.9-1.3-2.8-2.9c0.3-14.1,0.3-30.3,0.3-48.3c0-17-0.2-31.5-0.4-44.9
			c0-1.6,1.2-2.8,2.8-2.8h29.2c1.6,0,2.9,1.3,2.8,2.9c-0.5,13.5-0.5,27.8-0.5,45.9c0,20.7,0,33.9,0.5,47.2c0.1,1.6-1.2,2.9-2.8,2.9
			H538.6L538.6,281.5z"/>
		<path class="st0" d="M649,282c-1.6,0-2.8-1.3-2.8-2.9c0.4-16.2,0.4-36.6,0.4-63c0-7.4-2.6-10.5-10.3-10.5
			c-8.2,0-13.9,3.8-13.9,14.6c0,35.7,0,48.2,0.2,59c0,1.6-1.2,2.9-2.8,2.9h-29c-1.6,0-2.8-1.3-2.8-2.9c0.2-13.2,0.4-26.3,0.4-46.6
			s-0.2-34.1-0.4-46.6c0-1.6,1.2-2.9,2.8-2.9h29.2c1.6,0,2.9,1.3,2.8,2.9c-0.1,3.5-0.2,6.6-0.3,9.9l1.3,0.2
			c5.4-10.2,15.5-14.4,29.7-14.2c15.3,0.1,27.6,12.9,27.5,28.2c0,17.3-0.2,26.5-0.2,37.7c0,11.8,0,21.6,0.3,31.4
			c0,1.6-1.2,2.9-2.8,2.9L649,282L649,282z"/>
		<path class="st0" d="M733.9,246.4c0,4.8-0.2,6.9,4.2,7.4c1.5,0.2,3,0.1,4.5-0.1l2.8-0.4c1.7-0.3,3.2,1.1,3.2,2.8v23.3
			c0,1.4-1,2.6-2.4,2.8c0,0-4.7,0.8-8,0.9c-28.7,1.2-37.8-11-37.8-28.8c0-12.1-0.1-24.7,0.1-41.9l-6.8-0.1c-1.5,0-2.8-1.3-2.8-2.9
			c0.1-6.7,0.1-14,0-20.4c0-1.6,1.3-2.9,2.9-2.9l6.7,0.1v-17.2c0-1.6,1.3-2.9,2.9-2.8c4.4,0.1,10.3,0.2,15,0.2h-0.1
			c4.7,0,8.5-0.1,12.9-0.2c1.6,0,2.9,1.2,2.9,2.8v17.2l0,0l9.5-0.1c1.6,0,2.9,1.3,2.9,2.9c-0.1,6.4-0.1,13.7,0,20.4
			c0,1.5-1.2,2.8-2.8,2.9l-9.6,0.1C734.1,212.2,733.9,233.4,733.9,246.4L733.9,246.4z"/>
		<ellipse class="st0" cx="552.9" cy="156.5" rx="19.1" ry="17.6"/>
	</g>
	<g>
		<g>
			
				<linearGradient id="SVGID_1_" gradientUnits="userSpaceOnUse" x1="265.6957" y1="260.7821" x2="-32.9943" y2="78.5821" gradientTransform="matrix(1 0 0 -1 0 339.28)">
				<stop  offset="0.1" style="stop-color:#E32B25"/>
				<stop  offset="1" style="stop-color:#25215D"/>
			</linearGradient>
			<path class="st1" d="M261.9,61.2c0,28.3-6.1,59.7-22.8,82.4c-8.6,11.6-18.3,22.3-30.5,30.2c-14.6,9.5-31.6,15.4-48.5,19.1
				c-8.1,1.8-16.4,3-24.7,3.8c-13.6,1.4-27.2,1.9-40.7,4c-17.6,2.6-33.8,8.5-48.2,19.1c-13.3,9.8-24.2,22.7-32.5,36.9
				c-2.3,4-4.5,8.1-6.4,12.3c-0.7,1.6-1.4,3.2-2.1,4.8c-1,2.4-4.5,2-4.9-0.6c-0.9-6.2-1.3-15.7,0.6-29.9
				c3.7-28.4,14.3-61.7,40.3-85.7c12.1-11.2,26.3-20.1,41.7-26c12.8-5,26.5-7.2,40.1-8.2c18.4-1.4,36.5-2.2,54.1-8.2
				c15.9-5.4,30.8-13.8,43.4-24.9c1.8-1.6,3.5-3.2,5.2-4.9c12.7-12.5,22.9-27.5,29.6-44c1-2.4,4.5-2,4.9,0.6
				C261.4,48.3,261.9,54.7,261.9,61.2L261.9,61.2z"/>
			
				<linearGradient id="SVGID_00000008856573607698815880000012509144308940411788_" gradientUnits="userSpaceOnUse" x1="234.2396" y1="378.4262" x2="-46.5304" y2="187.2662" gradientTransform="matrix(1 0 0 -1 0 339.28)">
				<stop  offset="0.18" style="stop-color:#11499E"/>
				<stop  offset="1" style="stop-color:#25215D"/>
			</linearGradient>
			<path style="fill:url(#SVGID_00000008856573607698815880000012509144308940411788_);" d="M222.3,3.8H60
				C30.9,3.8,7.3,27.4,7.3,56.5v117c2.5-4.6,5-8.6,6.6-11c2.5-3.7,5.1-7.3,8-10.8c5.5-6.7,11.6-12.9,18.4-18.4
				c13.3-10.8,29-18.3,45.1-24c8.5-3,17.1-5.6,25.8-7.9c34.1-9.3,71.8-16.4,100.4-38.5c10.6-8.2,19.9-18,26.1-29.7
				C244.4,20.1,237.4,3.8,222.3,3.8L222.3,3.8z"/>
		</g>
		
			<linearGradient id="SVGID_00000155135868405473227620000007282561717994867112_" gradientUnits="userSpaceOnUse" x1="295.7941" y1="165.0233" x2="119.5741" y2="9.2033" gradientTransform="matrix(1 0 0 -1 0 339.28)">
			<stop  offset="0.17" style="stop-color:#E32B25"/>
			<stop  offset="0.27" style="stop-color:#C6292D"/>
			<stop  offset="0.53" style="stop-color:#812541"/>
			<stop  offset="0.74" style="stop-color:#4F2350"/>
			<stop  offset="0.91" style="stop-color:#302159"/>
			<stop  offset="1" style="stop-color:#25215D"/>
		</linearGradient>
		
			<ellipse style="fill:url(#SVGID_00000155135868405473227620000007282561717994867112_);" cx="214.9" cy="245.8" rx="40.7" ry="39.2"/>
	</g>
</g>
</svg>
